<svg xmlns="http://www.w3.org/2000/svg" width="48" height="48" viewBox="0 0 48 48">
  <!-- Background rounded square -->
  <rect width="48" height="48" rx="10" fill="#1E40AF"/>
  <!-- Shield shape -->
  <path d="M24 8 L36 13 L36 24 C36 31 30 37 24 40 C18 37 12 31 12 24 L12 13 Z" fill="#ffffff" fill-opacity="0.15"/>
  <path d="M24 10 L35 14.5 L35 24 C35 30.5 29.5 36 24 38.5 C18.5 36 13 30.5 13 24 L13 14.5 Z" fill="#ffffff" fill-opacity="0.15"/>
  <!-- Inner shield -->
  <path d="M24 11.5 L34 15.5 L34 24 C34 29.8 29 35 24 37.5 C19 35 14 29.8 14 24 L14 15.5 Z" fill="none" stroke="#93C5FD" stroke-width="1.2"/>
  <!-- Checkmark -->
  <polyline points="18,24 22,28 30,19" fill="none" stroke="#ffffff" stroke-width="2.8" stroke-linecap="round" stroke-linejoin="round"/>
</svg>
